#!OML:ASF H:\BreakDance\Project 1\Capture day 1\Session 1\Male.ASF
:FULLY-SPECIFIED
:DEGREES
450
root 25.8659 16.683 -7.85339 13.3273 -11.202 -2.10845
lowerback -5.1953 -4.32266 -5.89313
upperback -0.994845 -5.45103 0.563593
thorax 2.47933 -2.77061 3.45006
lowerneck -1.70684 -15.0034 -9.19378
upperneck -1.48865 -20.1015 13.3744
head 2.12039 -9.99345 4.55265
rclavicle 4.97956e-014 -9.54166e-015
rhumerus -57.4243 29.2342 -102.057
rradius 48.2352
rwrist -4.37025
rhand -28.1515 -29.7442
rfingers 7.12502
rthumb -1.53227 -59.7185
lclavicle 4.97956e-014 -9.54166e-015
lhumerus -44.6757 -16.4532 93.5964
lradius 44.2726
lwrist -4.51866
lhand -37.1748 -35.057
lfingers 7.12502
lthumb -10.2432 -5.32643
rfemur -30.3218 -14.4499 16.5287
rtibia 65.7687
rfoot 1.50018 17.9375
rtoes -8.9958
lfemur -15.2782 1.95034 -13.2522
ltibia 43.6048
lfoot -26.3157 14.2828
ltoes -24.4942
451
root 25.7775 16.7222 -7.83197 13.3848 -12.2708 -2.50603
lowerback -5.29854 -4.27714 -5.53841
upperback -1.01216 -5.40592 0.622917
thorax 2.48747 -2.74547 3.31263
lowerneck -1.8607 -14.7229 -8.9845
upperneck -1.31922 -19.7216 13.1325
head 2.10794 -9.7979 4.47553
rclavicle 4.47266e-014 4.77083e-015
rhumerus -57.1615 29.4853 -101.688
rradius 48.8457
rwrist -4.47908
rhand -28.1889 -29.3654
rfingers 7.12502
rthumb -1.56837 -59.3394
lclavicle 4.47266e-014 4.77083e-015
lhumerus -44.9677 -17.5208 94.0497
lradius 45.67
lwrist -3.86955
lhand -36.687 -34.3343
lfingers 7.12502
lthumb -9.77268 -4.58107
rfemur -31.2314 -14.4793 16.7973
rtibia 65.2126
rfoot -0.241561 16.4668
rtoes -10.2496
lfemur -14.7433 1.98889 -13.5469
ltibia 43.2589
lfoot -26.1776 12.3569
ltoes -26.1739
452
root 25.6853 16.7526 -7.80984 13.4306 -13.4431 -2.83625
lowerback -5.39597 -4.17755 -5.26779
upperback -0.984144 -5.28257 0.632587
thorax 2.5351 -2.68342 3.17622
lowerneck -2.03047 -14.4734 -8.6857
upperneck -1.23196 -19.3792 12.9137
head 2.07318 -9.62279 4.39132
rclavicle 6.2816e-014 -1.74931e-014
rhumerus -56.7311 29.5549 -101.247
rradius 49.3536
rwrist -4.49229
rhand -28.221 -28.9905
rfingers 7.12502
rthumb -1.59937 -58.9642
lclavicle 6.2816e-014 -1.74931e-014
lhumerus -45.1228 -18.7068 94.3865
lradius 47.0225
lwrist -3.38409
lhand -36.0926 -33.7739
lfingers 7.12502
lthumb -9.19917 -3.99457
rfemur -32.1549 -14.3141 16.9779
rtibia 64.547
rfoot -1.55298 15.2068
rtoes -8.76413
lfemur -14.1863 2.18654 -13.9498
ltibia 42.8146
lfoot -26.1202 9.77979
ltoes -29.5029
453
root 25.5894 16.7743 -7.78772 13.4492 -14.7288 -3.06236
lowerback -5.47267 -4.02872 -5.12817
upperback -0.920883 -5.08534 0.586666
thorax 2.60813 -2.58638 3.06201
lowerneck -2.1964 -14.2494 -8.31172
upperneck -1.2439 -19.0671 12.7261
head 2.00948 -9.46555 4.3069
rclavicle -3.67752e-014 -3.57812e-014
rhumerus -56.1129 29.4136 -100.716
rradius 49.716
rwrist -4.42707
rhand -28.2543 -28.6206
rfingers 7.12502
rthumb -1.63156 -58.5941
lclavicle -3.67752e-014 -3.57812e-014
lhumerus -45.1729 -19.9927 94.6097
lradius 48.3458
lwrist -3.04858
lhand -35.4575 -33.3859
lfingers 7.12502
lthumb -8.58632 -3.58052
rfemur -33.1014 -13.9632 17.028
rtibia 63.7959
rfoot -2.57554 14.2256
rtoes -5.52391
lfemur -13.5854 2.43031 -14.5083
ltibia 42.2431
lfoot -26.2722 6.71921
ltoes -33.5095
454
root 25.4915 16.7873 -7.76657 13.4183 -16.1111 -3.15708
lowerback -5.4954 -3.85482 -5.13287
upperback -0.838192 -4.84761 0.495498
thorax 2.67666 -2.4704 2.98806
lowerneck -2.35365 -14.0307 -7.93144
upperneck -1.3204 -18.7611 12.5883
head 1.93213 -9.31307 4.23703
rclavicle 3.80673e-014 1.59028e-014
rhumerus -55.3224 29.114 -100.093
rradius 49.9122
rwrist -4.30849
rhand -28.2602 -28.2307
rfingers 7.12502
rthumb -1.6372 -58.2041
lclavicle 3.80673e-014 1.59028e-014
lhumerus -45.1479 -21.2893 94.7304
lradius 49.6536
lwrist -2.83469
lhand -34.8538 -33.1606
lfingers 7.12502
lthumb -8.00367 -3.33218
rfemur -34.0711 -13.4893 16.9244
rtibia 62.9827
rfoot -3.43619 13.5141
rtoes -1.93112
lfemur -12.9219 2.58687 -15.2577
ltibia 41.5393
lfoot -26.6519 3.37727
ltoes -37.05
455
root 25.3932 16.7906 -7.74714 13.3303 -17.5597 -3.14134
lowerback -5.45496 -3.64645 -5.21904
upperback -0.739021 -4.56039 0.339248
thorax 2.72414 -2.33006 2.90041
lowerneck -2.48716 -13.8337 -7.48623
upperneck -1.45664 -18.4851 12.4792
head 1.83475 -9.17823 4.16742
rclavicle 2.13694e-014 1.59028e-015
rhumerus -54.3404 28.5496 -99.3617
rradius 49.9362
rwrist -4.07475
rhand -28.1949 -27.7922
rfingers 7.12502
rthumb -1.57413 -57.7661
lclavicle 2.13694e-014 1.59028e-015
lhumerus -45.0658 -22.645 94.7402
lradius 50.9604
lwrist -2.67197
lhand -34.3146 -33.0555
lfingers 7.12502
lthumb -7.48322 -3.2079
rfemur -35.0629 -12.9647 16.7065
rtibia 62.1245
rfoot -4.2143 12.9923
rtoes 0.979885
lfemur -12.1891 2.55404 -16.1759
ltibia 40.7211
lfoot -27.1585 0.145779
ltoes -39.4892
456
root 25.2971 16.7832 -7.72958 13.2044 -19.0351 -3.07723
lowerback -5.33739 -3.44001 -5.33601
upperback -0.643996 -4.27879 0.187107
thorax 2.72794 -2.192 2.83817
lowerneck -2.58514 -13.6294 -7.07896
upperneck -1.63967 -18.1976 12.3859
head 1.72318 -9.04003 4.11135
rclavicle -7.12643e-014 -1.98785e-014
rhumerus -53.2432 27.8363 -98.5119
rradius 49.842
rwrist -3.70632
rhand -28.0114 -27.2478
rfingers 7.12502
rthumb -1.39695 -57.223
lclavicle -7.12643e-014 -1.98785e-014
lhumerus -44.9307 -23.894 94.677
lradius 52.2669
lwrist -2.52533
lhand -33.8096 -33.0336
lfingers 7.12502
lthumb -6.99577 -3.16919
rfemur -36.0821 -12.4536 16.4638
rtibia 61.2338
rfoot -4.98934 12.5548
rtoes 2.51501
lfemur -11.4023 2.29619 -17.195
ltibia 39.8194
lfoot -27.6661 -2.66755
ltoes -40.3462
457
root 25.2048 16.765 -7.71313 13.0776 -20.509 -3.02488
lowerback -5.16565 -3.25028 -5.41505
upperback -0.555569 -4.02646 0.0695378
thorax 2.69739 -2.06755 2.79043
lowerneck -2.65863 -13.4057 -6.71538
upperneck -1.86949 -17.8801 12.2829
head 1.59537 -8.88889 4.06303
rclavicle -7.95139e-015 4.77083e-015
rhumerus -52.0981 27.112 -97.6044
rradius 49.7004
rwrist -3.288
rhand -27.7126 -26.6021
rfingers 7.12502
rthumb -1.10834 -56.579
lclavicle -7.95139e-015 4.77083e-015
lhumerus -44.7275 -24.9747 94.5399
lradius 53.5579
lwrist -2.3894
lhand -33.3025 -33.086
lfingers 7.12502
lthumb -6.50623 -3.20596
rfemur -37.1403 -11.9734 16.2717
rtibia 60.3215
rfoot -5.81189 12.122
rtoes 2.43361
lfemur -10.5877 1.84745 -18.2453
ltibia 38.8642
lfoot -28.0764 -4.8639
ltoes -39.6143
458
root 25.1167 16.7362 -7.69679 12.9875 -21.9853 -3.04375
lowerback -4.98039 -3.07566 -5.41199
upperback -0.48065 -3.80178 0.00301935
thorax 2.64613 -1.9556 2.74744
lowerneck -2.61495 -13.1467 -6.45358
upperneck -2.18943 -17.5176 11.8349
head 1.53816 -8.7313 4.38632
rclavicle -4.56211e-014 -2.06736e-014
rhumerus -50.9757 26.4895 -96.7239
rradius 49.5511
rwrist -2.92164
rhand -27.3591 -25.9225
rfingers 7.12502
rthumb -0.766877 -55.9009
lclavicle -4.56211e-014 -2.06736e-014
lhumerus -44.4734 -25.8739 94.339
lradius 54.8031
lwrist -2.29671
lhand -32.7785 -33.2019
lfingers 7.12502
lthumb -6.00038 -3.30682
rfemur -38.2452 -11.4885 16.1882
rtibia 59.4013
rfoot -6.6985 11.6412
rtoes 0.950939
lfemur -9.76052 1.31558 -19.2541
ltibia 37.8734
lfoot -28.4212 -6.11793
ltoes -38.309
459
root 25.0317 16.6972 -7.67996 12.9507 -23.4772 -3.16945
lowerback -4.79616 -2.91407 -5.31739
upperback -0.400139 -3.60097 0.00860281
thorax 2.60276 -1.85521 2.72453
lowerneck -2.60774 -12.8553 -6.22928
upperneck -2.51598 -17.1012 11.7276
head 1.35407 -8.53302 4.35633
rclavicle -4.01545e-014 -9.54166e-015
rhumerus -49.8676 26.1102 -95.9072
rradius 49.3991
rwrist -2.71149
rhand -27.0399 -25.2759
rfingers 7.12502
rthumb -0.45864 -55.2551
lclavicle -4.01545e-014 -9.54166e-015
lhumerus -44.1342 -26.5839 94.0858
lradius 55.9791
lwrist -2.26036
lhand -32.229 -33.3686
lfingers 7.12502
lthumb -5.46984 -3.4592
rfemur -39.3914 -10.9652 16.234
rtibia 58.4897
rfoot -7.61043 11.1003
rtoes -1.32895
lfemur -8.9211 0.830127 -20.1716
ltibia 36.8502
lfoot -28.6579 -6.46885
ltoes -36.9455
460
root 24.9483 16.6484 -7.66222 12.9647 -24.9934 -3.39899
lowerback -4.62861 -2.77077 -5.15787
upperback -0.303375 -3.42792 0.0923346
thorax 2.58942 -1.76932 2.74151
lowerneck -2.59078 -12.5207 -6.13211
upperneck -2.86612 -16.6228 11.6269
head 1.16995 -8.30349 4.35398
rclavicle -1.23246e-014 -7.15625e-015
rhumerus -48.769 26.1014 -95.1911
rradius 49.2265
rwrist -2.75233
rhand -26.8504 -24.7493
rfingers 7.12502
rthumb -0.275576 -54.7289
lclavicle -1.23246e-014 -7.15625e-015
lhumerus -43.7296 -27.1053 93.7945
lradius 57.0949
lwrist -2.27436
lhand -31.6893 -33.5668
lfingers 7.12502
lthumb -4.9487 -3.64461
rfemur -40.565 -10.3758 16.3844
rtibia 57.5996
rfoot -8.48385 10.5285
rtoes -3.68328
lfemur -8.06084 0.499464 -20.9848
ltibia 35.7914
lfoot -28.7609 -6.06234
ltoes -36.0524
461
root 24.8651 16.5913 -7.64357 13.02 -26.5381 -3.71224
lowerback -4.4954 -2.60988 -4.92965
upperback -0.172925 -3.23193 0.19284
thorax 2.6256 -1.67282 2.7359
lowerneck -2.56343 -12.1683 -6.06961
upperneck -3.26592 -16.1181 11.5464
head 0.972171 -8.06174 4.3669
rclavicle -3.53837e-014 -9.54166e-015
rhumerus -47.6119 26.2682 -94.5623
rradius 48.9965
rwrist -2.99164
rhand -26.8256 -24.3833
rfingers 7.12502
rthumb -0.251665 -54.3629
lclavicle -3.53837e-014 -9.54166e-015
lhumerus -43.283 -27.6228 93.4437
lradius 58.1716
lwrist -2.30357
lhand -31.2114 -33.7686
lfingers 7.12502
lthumb -4.48725 -3.8361
rfemur -41.7531 -9.71825 16.6072
rtibia 56.7349
rfoot -9.30136 9.96422
rtoes -5.88939
lfemur -7.17124 0.395639 -21.6995
ltibia 34.7001
lfoot -28.6865 -5.16331
ltoes -35.0802
462
root 24.7817 16.5272 -7.62477 13.1055 -28.1041 -4.07234
lowerback -4.38544 -2.44495 -4.68934
upperback -0.0101973 -3.02938 0.317614
thorax 2.709 -1.57438 2.74655
lowerneck -2.57968 -11.8037 -6.05573
upperneck -3.65751 -15.5964 11.4703
head 0.789248 -7.80931 4.38554
rclavicle 2.8625e-014 2.14687e-014
rhumerus -46.3657 26.536 -93.945
rradius 48.7146
rwrist -3.31548
rhand -26.952 -24.1582
rfingers 7.12502
rthumb -0.373695 -54.1376
lclavicle 2.8625e-014 2.14687e-014
lhumerus -42.8046 -28.1031 93.0517
lradius 59.219
lwrist -2.36097
lhand -30.8163 -34.0064
lfingers 7.12502
lthumb -4.10579 -4.06618
rfemur -42.9498 -9.02368 16.8687
rtibia 55.8861
rfoot -10.0337 9.43866
rtoes -7.96016
lfemur -6.24892 0.53027 -22.337
ltibia 33.5915
lfoot -28.4519 -4.00986
ltoes -33.0354
463
root 24.6979 16.4573 -7.60685 13.2206 -29.6764 -4.44786
lowerback -4.29969 -2.27778 -4.47268
upperback 0.171993 -2.8212 0.448866
thorax 2.82775 -1.47423 2.77571
lowerneck -2.62108 -11.4378 -6.05798
upperneck -4.04195 -15.0739 11.3904
head 0.614874 -7.55511 4.40217
rclavicle 7.95139e-014 4.77083e-015
rhumerus -45.0429 26.7534 -93.299
rradius 48.4193
rwrist -3.55194
rhand -27.1936 -24.0242
rfingers 7.12502
rthumb -0.6071 -54.0031
lclavicle 7.95139e-014 4.77083e-015
lhumerus -42.3176 -28.5726 92.6172
lradius 60.2495
lwrist -2.44945
lhand -30.5075 -34.3009
lfingers 7.12502
lthumb -3.80756 -4.3552
rfemur -44.1571 -8.32049 17.152
rtibia 55.0333
rfoot -10.6286 8.96338
rtoes -9.91318
lfemur -5.29543 0.847631 -22.9111
ltibia 32.4898
lfoot -28.3077 -2.52272
ltoes -29.7185
